name processed_emg_signals
nRows=49
nColumns=7
 
endheader
time	LGLTMED	LRF	LADDLONG	LST	LTA	LGM
0.0	0.155228634324755	0.1579920811020778	0.0356350220571659	0.0226362428995447	0.0197769998829047	0.1337630441238475
0.001	0.1708906471588364	0.1660996681035209	0.0209576587947859	0.0258969824502229	0.008656001053495	0.142097173943661
0.002	0.1865439966150406	0.1741900155509166	0.0063659624577827	0.0291408465535522	0.036961226761043	0.1504444637333314
0.003	0.2021782847147422	0.1822582931319046	0.0081310958743412	0.0323659024335291	0.0651195452609819	0.1587987008621488
0.004	0.2177830741838781	0.1902997253246833	0.0225246593951467	0.0355702486846861	0.0931119715641551	0.1671536322228237
0.005	0.2333479015011407	0.1983096003046665	0.0368059983099044	0.0387520184698643	0.1209196964477148	0.1755029738021552
0.006	0.2488622900535802	0.2062832787634424	0.0509665223495531	0.0419093826495327	0.1485241148777988	0.1838404203063283
0.007	0.2643157633756138	0.2142162026095214	0.0649977930310458	0.0450405528324527	0.1759068539934874	0.1921596548102088
0.008	0.279697858448203	0.222103903521017	0.0788915356358507	0.0481437843376791	0.2030498005723938	0.200454358403762
0.009000000000000001	0.2949981390353128	0.2299420113212478	0.0926396508797946	0.0512173790579947	0.2299351279043169	0.2087182198117112
0.01	0.3102062090344361	0.2377262621492143	0.1062342262481269	0.0542596882150379	0.2565453220056967	0.216944944964933
0.011	0.3253117258173776	0.2454525063979525	0.119667546970702	0.0572691149964598	0.2828632071134281	0.2251282665044826
0.012	0.3403044135368823	0.2531167163944032	0.1329321066131395	0.0602441170658502	0.3088719704016334	0.2332619532016256
0.013000000000000001	0.3551740763739548	0.2607149937946855	0.1460206172605052	0.0631832089362789	0.3345551858696323	0.2413398192792992
0.014	0.3699106116998994	0.2682435766685273	0.1589260192708855	0.0660849641987036	0.3598968373542189	0.2493557336217506
0.015	0.3845040231263818	0.2756988462464196	0.171641490577098	0.0689480175967312	0.3848813406246528	0.2573036288597748
0.016	0.3989444334159344	0.2830773333030731	0.1841604555158651	0.0717710669395807	0.4094935645244104	0.2651775103190181
0.017	0.4132220972248729	0.2903757241512711	0.1964765931649758	0.0745528748455664	0.4337188511288101	0.2729714648191303
0.018000000000000002	0.4273274136500827	0.2975908662210829	0.208583845170318	0.0772922703089568	0.4575430348917356	0.2806796693117082
0.019	0.4412509385508262	0.3047197732009533	0.2204764230470293	0.0799881500837488	0.4809524607577802	0.2882963993452533
0.02	0.4549833966169246	0.3117596297191643	0.2321488149412245	0.0826394798788628	0.503934001218779	0.2958160373456975
0.021	0.4685156931548824	0.3187077955469678	0.2435957918421234	0.0852452953601605	0.5264750722962739	0.3032330807013025
0.022	0.4818389255643814	0.3255618093077431	0.2548124132369338	0.0878047029557624	0.5485636484344578	0.3105421496407736
0.023	0.4949443944783731	0.3323193916797569	0.2657940322032712	0.0903168804621208	0.5701882762909954	0.3177379948932705
0.024	0.507823614540877	0.3389784480834722	0.2765362999352727	0.0927810774494631	0.5913380874155034	0.3248155051189278
0.025	0.5204683247970201	0.3455370708474811	0.2870351697003732	0.0951966154659046	0.6120028098067777	0.3317697140981558
0.026000000000000002	0.5328704986706155	0.3519935408497443	0.2972869002244368	0.0975628880404007	0.6321727783402807	0.3385958076680475
0.027	0.5450223535056323	0.3583463286333535	0.3072880585037682	0.0998793604853276	0.6518389440573482	0.3452891303938414
0.028	0.5569163596500041	0.3645940949981952	0.3170355220438798	0.1021455695002303	0.6709928823072621	0.3518451919635842
0.029	0.5685452490630222	0.3707356910724538	0.3265264805271674	0.1043611225790382	0.689626799733377	0.3582596732940185
0.03	0.5799020234311114	0.3767701578706015	0.335758436914809	0.1065256972241997	0.7077335400950441	0.3645284323359086
0.031	0.5909799617797853	0.382696725347858	0.3447292079917621	0.1086390399719884	0.7253065889184676	0.3706475095674508
0.032	0.6017726275717498	0.3885148109642347	0.3534369243674659	0.1107009652343355	0.7423400769723901	0.3766131331650791
0.033	0.612273875281973	0.3942240177743616	0.3618800299477901	0.1127113539631412	0.7588287825688743	0.3824217238420143
0.034	0.622477856441523	0.3998241320619244	0.370057280896534	0.1146701521438054	0.7747681326954965	0.3880698993460383
0.035	0.6323790251433529	0.4053151205397663	0.3779677441057095	0.1165773691254497	0.7901542029924249	0.3935544786094265
0.036000000000000004	0.6419721430054252	0.4106971271383881	0.385610795194713	0.1184330757960954	0.804983716594997	0.3988724855452386
0.037	0.6512522835882949	0.4159704694063759	0.3929861160577133	0.1202374026116643	0.8192540418684228	0.4040211524854737
0.038	0.6602148362664841	0.4211356345463807	0.4000936919785577	0.1219905374879615	0.8329631890652728	0.408997923257081
0.039	0.668855509555749	0.4261932751101131	0.4069338083315461	0.1236927235651902	0.846109805938485	0.4138004558922461
0.04	0.6771703339014781	0.4311442043757565	0.4135070468861366	0.1253442568544321	0.8586931723431668	0.4184266249693301
0.041	0.6851556639366237	0.4359893914314243	0.4198142817326223	0.1269454837756141	0.8707131938606967	0.4228745235810066
0.042	0.6928081802203049	0.4407299559884536	0.425856674845094	0.128496798596244	0.8821703944791688	0.4271424649262347
0.043000000000000003	0.7001248904705597	0.445367162948588	0.431635671297739	0.1299986407799867	0.8930659083652279	0.4312289835231341
0.044	0.7071031303067075	0.4499024167490647	0.437152994150203	0.1314514922539117	0.903401470762877	0.4351328360403537
0.045	0.7137405635179884	0.4543372555097051	0.4424106390183435	0.1328558746029589	0.913179408054664	0.4388530017450149
0.046	0.7200351818754916	0.4586733450056277	0.4474108683472688	0.1342123462000293	0.9224026270201624	0.4423886825655536
0.047	0.7259853045038897	0.4629124724887525	0.4521562054038202	0.1355214992801235	0.9310746033267148	0.4457393027673453
0.048	0.7315895768285076	0.4670565403803696	0.4566494280062199	0.1367839569671219	0.9391993692884008	0.4489045082384086
